<svg width="85" height="85" viewBox="0 0 85 85" fill="none" xmlns="http://www.w3.org/2000/svg">
<g clip-path="url(#clip0_1326_6351)">
<path d="M42.4991 66.5426C55.7777 66.5426 66.5422 55.7782 66.5422 42.4996C66.5422 29.221 55.7777 18.4565 42.4991 18.4565C29.2205 18.4565 18.4561 29.221 18.4561 42.4996C18.4561 55.7782 29.2205 66.5426 42.4991 66.5426Z" fill="#FFD347"/>
<path d="M42.5003 9.43782C41.7909 9.43782 41.2158 8.86291 41.2158 8.15336V1.28446C41.2158 0.574912 41.7909 0 42.5003 0C43.2097 0 43.7847 0.574912 43.7847 1.28446V8.15353C43.7847 8.86291 43.2097 9.43782 42.5003 9.43782Z" fill="#FFD347"/>
<path d="M25.3275 14.0395C24.8836 14.0395 24.452 13.8092 24.2141 13.3972L20.7797 7.44851C20.4251 6.83425 20.6354 6.04867 21.2499 5.69389C21.8643 5.33962 22.6497 5.54946 23.0045 6.16405L26.4388 12.1127C26.7934 12.727 26.5831 13.5126 25.9687 13.8673C25.7663 13.984 25.5455 14.0395 25.3275 14.0395Z" fill="#FFD347"/>
<path d="M12.7535 26.6113C12.5357 26.6113 12.3148 26.5559 12.1126 26.439L6.16388 23.0046C5.54962 22.65 5.33911 21.8644 5.69372 21.25C6.04833 20.6356 6.83392 20.4254 7.44834 20.7799L13.397 24.2142C14.0113 24.5688 14.2218 25.3544 13.8672 25.9689C13.6291 26.3811 13.1975 26.6113 12.7535 26.6113Z" fill="#FFD347"/>
<path d="M8.15336 43.7845H1.28446C0.575078 43.7845 0 43.2096 0 42.5C0 41.7905 0.575078 41.2156 1.28446 41.2156H8.15352C8.86291 41.2156 9.43799 41.7905 9.43799 42.5C9.43799 43.2096 8.86274 43.7845 8.15336 43.7845Z" fill="#FFD347"/>
<path d="M6.80723 64.3924C6.3633 64.3924 5.93166 64.1621 5.69376 63.7501C5.33915 63.1358 5.54949 62.3502 6.16392 61.9954L12.1126 58.5611C12.7268 58.2068 13.5124 58.4166 13.8672 59.0312C14.2218 59.6455 14.0115 60.4311 13.3971 60.7859L7.44838 64.2202C7.24601 64.3369 7.02504 64.3924 6.80723 64.3924Z" fill="#FFD347"/>
<path d="M21.8908 79.4784C21.673 79.4784 21.452 79.423 21.2498 79.3061C20.6356 78.9515 20.4251 78.1659 20.7797 77.5515L24.214 71.6028C24.5686 70.9884 25.3542 70.7782 25.9686 71.1327C26.5829 71.4873 26.7934 72.2728 26.4388 72.8873L23.0044 78.8359C22.7664 79.248 22.3347 79.4784 21.8908 79.4784Z" fill="#FFD347"/>
<path d="M42.5003 85C41.7909 85 41.2158 84.4251 41.2158 83.7155V76.8465C41.2158 76.1369 41.7909 75.562 42.5003 75.562C43.2097 75.562 43.7847 76.1369 43.7847 76.8465V83.7155C43.7847 84.4251 43.2097 85 42.5003 85Z" fill="#FFD347"/>
<path d="M63.1088 79.4782C62.6649 79.4782 62.2332 79.248 61.9953 78.8359L58.5609 72.8872C58.2063 72.273 58.4167 71.4874 59.0311 71.1326C59.6454 70.7783 60.4309 70.9882 60.7857 71.6028L64.2201 77.5514C64.5747 78.1657 64.3644 78.9513 63.7499 79.3061C63.5476 79.4228 63.3268 79.4782 63.1088 79.4782Z" fill="#FFD347"/>
<path d="M78.193 64.3923C77.9752 64.3923 77.7542 64.3369 77.552 64.22L71.6033 60.7856C70.9891 60.431 70.7786 59.6455 71.1332 59.031C71.4878 58.4166 72.2734 58.2064 72.8878 58.5609L78.8365 61.9952C79.4507 62.3498 79.6612 63.1354 79.3066 63.7499C79.0686 64.1619 78.6369 64.3923 78.193 64.3923Z" fill="#FFD347"/>
<path d="M83.715 43.7845H76.846C76.1366 43.7845 75.5615 43.2096 75.5615 42.5C75.5615 41.7905 76.1366 41.2156 76.846 41.2156H83.715C84.4244 41.2156 84.9995 41.7905 84.9995 42.5C84.9995 43.2096 84.4244 43.7845 83.715 43.7845Z" fill="#FFD347"/>
<path d="M72.2457 26.6114C71.8018 26.6114 71.3701 26.3811 71.1322 25.9691C70.7776 25.3548 70.988 24.5692 71.6024 24.2144L77.5511 20.7801C78.1653 20.4258 78.9509 20.6356 79.3057 21.2502C79.6603 21.8645 79.45 22.6501 78.8355 23.0049L72.8869 26.4392C72.6845 26.5559 72.4635 26.6114 72.2457 26.6114Z" fill="#FFD347"/>
<path d="M59.6721 14.0397C59.4542 14.0397 59.2333 13.9843 59.0311 13.8674C58.4168 13.5128 58.2063 12.7272 58.5609 12.1128L61.9953 6.16409C62.3499 5.54966 63.1355 5.33949 63.7499 5.69393C64.3642 6.04854 64.5747 6.83413 64.2201 7.44855L60.7857 13.3972C60.5476 13.8094 60.1158 14.0397 59.6721 14.0397Z" fill="#FFD347"/>
<path d="M42.4997 18.4575C41.6295 18.4575 40.7702 18.505 39.9238 18.595C51.9907 19.8804 61.3901 30.0919 61.3901 42.4997C61.3901 54.9076 51.9905 65.1192 39.9238 66.4047C40.7702 66.495 41.6293 66.5421 42.4997 66.5421C55.778 66.5421 66.5421 55.778 66.5421 42.4997C66.5421 29.2215 55.7782 18.4575 42.4997 18.4575Z" fill="#FFBE31"/>
</g>
<defs>
<clipPath id="clip0_1326_6351">
<rect width="85" height="85" fill="white"/>
</clipPath>
</defs>
</svg>
